<?xml version="1.0" encoding="UTF-8"?>
<svg xmlns="http://www.w3.org/2000/svg" xmlns:xlink="http://www.w3.org/1999/xlink" width="36px" height="36px" viewBox="0 0 36 36" version="1.1">
<g id="surface1">
<path style=" stroke:none;fill-rule:nonzero;fill:rgb(42.352942%,0%,96.470588%);fill-opacity:1;" d="M 3 0 L 33 0 C 34.660156 0 36 1.339844 36 3 L 36 33 C 36 34.660156 34.660156 36 33 36 L 3 36 C 1.339844 36 0 34.660156 0 33 L 0 3 C 0 1.339844 1.339844 0 3 0 Z M 3 0 "/>
<path style=" stroke:none;fill-rule:nonzero;fill:rgb(100%,100%,100%);fill-opacity:1;" d="M 21.882812 9.957031 L 16.855469 12.84375 L 16.855469 21.847656 L 14.085938 23.457031 L 11.296875 21.847656 L 11.296875 18.628906 L 14.085938 17.039062 L 15.878906 18.078125 L 15.878906 15.476562 L 14.070312 14.453125 L 9.046875 17.371094 L 9.046875 23.136719 L 14.085938 26.042969 L 19.105469 23.136719 L 19.105469 14.136719 L 21.894531 12.53125 L 24.683594 14.136719 L 24.683594 17.339844 L 21.894531 18.960938 L 20.089844 17.910156 L 20.089844 20.5 L 21.882812 21.535156 L 26.953125 18.648438 L 26.953125 12.84375 Z M 21.882812 9.957031 "/>
</g>
</svg>
